<svg xmlns="http://www.w3.org/2000/svg" version="1.1" xmlns:xlink="http://www.w3.org/1999/xlink" xmlns:svgjs="http://svgjs.dev/svgjs" width="1500" height="1500" viewBox="0 0 1500 1500"><rect width="1500" height="1500" fill="#000000"></rect><g transform="matrix(0.6666666666666666,0,0,0.6666666666666666,249.39393939393938,438.5856950067477)"><svg viewBox="0 0 396 247" data-background-color="#000000" preserveAspectRatio="xMidYMid meet" height="935" width="1500" xmlns="http://www.w3.org/2000/svg" xmlns:xlink="http://www.w3.org/1999/xlink"><g id="tight-bounds" transform="matrix(1,0,0,1,0.2400000000000091,-0.09999999999999432)"><svg viewBox="0 0 395.52 247.2" height="247.2" width="395.52"><g><svg></svg></g><g><svg viewBox="0 0 395.52 247.2" height="247.2" width="395.52"><g transform="matrix(1,0,0,1,39.55199999999999,73.6065005417118)"><svg viewBox="0 0 316.416 99.98699891657638" height="99.98699891657638" width="316.416"><g><svg viewBox="0 0 316.416 99.98699891657638" height="99.98699891657638" width="316.416"><g><svg viewBox="0 0 316.416 99.98699891657638" height="99.98699891657638" width="316.416"><g><svg viewBox="0 0 316.416 99.98699891657638" height="99.98699891657638" width="316.416"><g id="textblocktransform"><svg viewBox="0 0 316.416 99.98699891657638" height="99.98699891657638" width="316.416" id="textblock"><g><svg viewBox="0 0 316.416 99.98699891657638" height="99.98699891657638" width="316.416"><g transform="matrix(1,0,0,1,0,0)"><svg width="316.416" viewBox="1.55 -43.35 138.44 43.75" height="99.98699891657638" data-palette-color="#ffffff"><path d="M11.9 0.4Q7.2 0.4 4.38-2.55 1.55-5.5 1.55-10.65L1.55-10.65 1.55-30.45Q1.55-36.85 4.1-40.1 6.65-43.35 12.1-43.35L12.1-43.35Q16.85-43.35 19.75-40.75 22.65-38.15 22.65-33.25L22.65-33.25 22.65-25.85 14.1-25.85 14.1-32.2Q14.1-34.05 13.65-34.75 13.2-35.45 12.1-35.45L12.1-35.45Q10.95-35.45 10.53-34.65 10.1-33.85 10.1-32.3L10.1-32.3 10.1-10.75Q10.1-9.05 10.6-8.28 11.1-7.5 12.1-7.5L12.1-7.5Q14.1-7.5 14.1-10.75L14.1-10.75 14.1-18.5 22.75-18.5 22.75-10.4Q22.75 0.4 11.9 0.4L11.9 0.4ZM42.95 0L24.5 0 24.5-7.8 34.3-35.05 25.45-35.05 25.45-42.95 43.4-42.95 43.4-35.45 33.35-7.9 42.95-7.9 42.95 0ZM54.65 0L46.1 0 46.1-42.95 54.6-42.95 54.6-25.75 58.6-42.95 67.25-42.95 62.45-23.3 68.25 0 59.35 0 54.65-20.8 54.65 0ZM69.69 0L69.69-42.95 82.89-42.95Q86.04-42.95 87.77-41.53 89.49-40.1 90.09-37.52 90.69-34.95 90.69-30.95L90.69-30.95Q90.69-27.3 89.74-25.25 88.79-23.2 86.44-22.4L86.44-22.4Q88.39-22 89.27-20.45 90.14-18.9 90.14-16.25L90.14-16.25 90.04 0 81.64 0 81.64-16.8Q81.64-18.6 80.94-19.1 80.24-19.6 78.39-19.6L78.39-19.6 78.39 0 69.69 0ZM78.44-27.05L80.49-27.05Q82.29-27.05 82.29-30.95L82.29-30.95Q82.29-32.65 82.14-33.5 81.99-34.35 81.59-34.68 81.19-35 80.44-35L80.44-35 78.44-35 78.44-27.05ZM103.79 0.4Q98.59 0.4 95.89-2.78 93.19-5.95 93.19-11.7L93.19-11.7 93.19-32.15Q93.19-37.7 95.89-40.53 98.59-43.35 103.79-43.35L103.79-43.35Q108.99-43.35 111.69-40.53 114.39-37.7 114.39-32.15L114.39-32.15 114.39-11.7Q114.39-5.9 111.69-2.75 108.99 0.4 103.79 0.4L103.79 0.4ZM103.79-7.5Q104.94-7.5 105.34-8.5 105.74-9.5 105.74-11.3L105.74-11.3 105.74-32.3Q105.74-33.7 105.37-34.58 104.99-35.45 103.84-35.45L103.84-35.45Q101.69-35.45 101.69-32.2L101.69-32.2 101.69-11.25Q101.69-9.4 102.14-8.45 102.59-7.5 103.79-7.5L103.79-7.5ZM126.39 0L117.84 0 117.84-42.95 126.34-42.95 126.34-25.75 130.34-42.95 138.99-42.95 134.19-23.3 139.99 0 131.09 0 126.39-20.8 126.39 0Z" opacity="1" transform="matrix(1,0,0,1,0,0)" fill="#ffffff" class="wordmark-text-0" data-fill-palette-color="primary" id="text-0"></path></svg></g></svg></g></svg></g></svg></g><g></g></svg></g></svg></g></svg></g><g><path d="M0 247.2v-247.2h395.52v247.2zM386.503 238.183v-229.166h-377.486v229.166z" fill="#ffffff" fill-rule="nonzero" stroke="none" stroke-width="1" stroke-linecap="butt" stroke-linejoin="miter" stroke-miterlimit="10" stroke-dasharray="" stroke-dashoffset="0" font-family="none" font-weight="none" font-size="none" text-anchor="none" style="mix-blend-mode: normal" data-fill-palette-color="tertiary"></path></g></svg></g><defs></defs></svg><rect width="395.52" height="247.2" fill="none" stroke="none" visibility="hidden"></rect></g></svg></g></svg>